<?xml version="1.0" encoding="UTF-8"?>
<svg xmlns="http://www.w3.org/2000/svg" xmlns:xlink="http://www.w3.org/1999/xlink" width="1200pt" height="675pt" viewBox="0 0 1200 675" version="1.1">
<defs>
<g>
<symbol overflow="visible" id="DBhGBcPm0-0">
<path style="stroke:none;" d="M 12.359375 -0.28125 L 166.4375 -0.28125 L 166.4375 -307.34375 L 12.359375 -307.34375 Z M 28.015625 -15.109375 L 28.015625 -291.96875 L 151.609375 -291.96875 L 151.609375 -15.109375 Z M 28.015625 -15.109375 "/>
</symbol>
<symbol overflow="visible" id="DBhGBcPm0-1">
<path style="stroke:none;" d="M 29.109375 -14.5625 C 29.9375 -5.5 37.359375 2.75 46.96875 2.75 C 47.515625 2.75 47.796875 2.75 48.34375 2.75 C 162.046875 -5.765625 251.03125 -57.125 269.4375 -154.359375 C 271.90625 -166.4375 272.734375 -178.53125 272.734375 -190.34375 C 272.734375 -268.609375 225.21875 -335.625 176.875 -367.5 C 146.671875 -387.265625 114.8125 -397.15625 81.03125 -397.15625 C 68.109375 -397.15625 54.9375 -395.78125 41.46875 -392.765625 C 34.0625 -391.109375 27.46875 -383.96875 27.46875 -375.1875 Z M 63.171875 -360.359375 C 69.21875 -361.171875 74.984375 -361.453125 80.75 -361.453125 C 107.390625 -361.453125 132.390625 -353.765625 155.734375 -338.65625 C 197.203125 -311.46875 236.75 -256.25 236.75 -189.78125 C 236.75 -179.625 235.9375 -168.921875 233.734375 -157.921875 C 219.734375 -84.875 148.859375 -45.046875 64.8125 -34.875 Z M 63.171875 -360.359375 "/>
</symbol>
<symbol overflow="visible" id="DBhGBcPm1-0">
<path style="stroke:none;" d="M 8.53125 -0.1875 L 114.953125 -0.1875 L 114.953125 -212.265625 L 8.53125 -212.265625 Z M 19.34375 -10.4375 L 19.34375 -201.640625 L 104.71875 -201.640625 L 104.71875 -10.4375 Z M 19.34375 -10.4375 "/>
</symbol>
<symbol overflow="visible" id="DBhGBcPm1-1">
<path style="stroke:none;" d="M 93.328125 -247.171875 C 149.859375 -247.171875 188.9375 -242.625 210 -233.328125 C 211.890625 -232.375 213.78125 -232 215.5 -232 C 222.515625 -232 226.875 -237.3125 227.0625 -243.765625 C 227.25 -249.265625 224.984375 -253.4375 220.046875 -255.71875 C 199.1875 -265 164.84375 -270.125 116.46875 -271.640625 C 91.625 -272.40625 68.296875 -272.21875 46.671875 -270.890625 L 33 -269.9375 C 26.9375 -269.5625 21.4375 -264.0625 21.4375 -257.796875 C 21.4375 -219.671875 22.765625 -184.578125 22.765625 -152.890625 C 22.765625 -110.96875 18.96875 -19.734375 18.96875 -12.703125 C 18.96875 -5.6875 25.046875 0.1875 31.296875 0.1875 C 120.84375 0.1875 178.125 -0.765625 202.96875 -3.03125 C 210.375 -3.609375 213.78125 -9.296875 213.78125 -15.171875 C 213.78125 -21.4375 209.609375 -28.453125 202.03125 -27.703125 C 179.453125 -25.796875 127.09375 -24.65625 44.203125 -24.46875 L 45.140625 -42.6875 C 46.09375 -62.59375 46.859375 -89.34375 47.234375 -123.109375 L 184.765625 -122.171875 C 192.734375 -121.96875 196.71875 -128.234375 196.71875 -134.5 C 196.71875 -140.5625 192.734375 -146.828125 184.953125 -146.828125 L 47.421875 -147.78125 C 47.421875 -176.796875 47.046875 -209.609375 46.28125 -246.03125 C 58.234375 -246.796875 77.390625 -247.171875 93.328125 -247.171875 Z M 93.328125 -247.171875 "/>
</symbol>
<symbol overflow="visible" id="DBhGBcPm2-0">
<path style="stroke:none;" d="M 6.9375 -0.15625 L 93.4375 -0.15625 L 93.4375 -172.515625 L 6.9375 -172.515625 Z M 15.71875 -8.484375 L 15.71875 -163.890625 L 85.109375 -163.890625 L 85.109375 -8.484375 Z M 15.71875 -8.484375 "/>
</symbol>
<symbol overflow="visible" id="DBhGBcPm2-1">
<path style="stroke:none;" d="M 125.5 2.921875 C 144.3125 2.921875 165.125 0.15625 188.09375 -5.234375 C 193.328125 -6.46875 195.640625 -10.484375 195.640625 -14.5 C 195.640625 -19.734375 191.953125 -24.96875 185.9375 -24.96875 C 185.15625 -24.96875 184.390625 -24.828125 183.46875 -24.671875 C 162.03125 -19.578125 142.921875 -17.109375 125.8125 -17.109375 C 74.3125 -17.109375 35.453125 -41.3125 35.453125 -91.734375 C 35.453125 -133.359375 63.828125 -168.359375 92.203125 -185.015625 C 111 -195.953125 131.671875 -201.65625 154.015625 -201.65625 C 163.109375 -201.65625 172.375 -200.734375 181.921875 -198.890625 C 182.703125 -198.734375 183.46875 -198.734375 184.078125 -198.734375 C 189.9375 -198.734375 193.328125 -203.8125 193.328125 -208.90625 C 193.328125 -213.21875 191.015625 -217.546875 185.625 -218.46875 C 174.6875 -220.46875 163.890625 -221.546875 153.5625 -221.546875 C 127.8125 -221.546875 104.0625 -215.078125 82.171875 -202.28125 C 48.40625 -182.390625 15.578125 -141.53125 15.578125 -91.265625 C 15.578125 -30.21875 62.75 2.921875 125.5 2.921875 Z M 125.5 2.921875 "/>
</symbol>
<symbol overflow="visible" id="DBhGBcPm3-0">
<path style="stroke:none;" d="M 6.0625 -0.140625 L 81.671875 -0.140625 L 81.671875 -150.796875 L 6.0625 -150.796875 Z M 13.75 -7.40625 L 13.75 -143.25 L 74.390625 -143.25 L 74.390625 -7.40625 Z M 13.75 -7.40625 "/>
</symbol>
<symbol overflow="visible" id="DBhGBcPm3-1">
<path style="stroke:none;" d="M 21.96875 5.25 C 26.421875 5.25 30.59375 1.890625 31 -2.703125 C 32.75 -25.734375 36.25 -50.53125 41.640625 -77.09375 L 138.265625 -77.09375 C 143.125 -58.078125 147.5625 -36.921875 151.75 -13.75 L 153.765625 -2.015625 C 154.71875 2.828125 158.34375 4.984375 162.125 4.984375 C 166.703125 4.984375 171.28125 1.890625 171.28125 -3.5 C 171.28125 -4.046875 171.28125 -4.453125 171.15625 -4.984375 L 169 -16.84375 C 159.703125 -68.46875 148.78125 -110.109375 136.390625 -141.640625 C 122.09375 -177.75 106.734375 -195.8125 90.421875 -195.8125 C 84.640625 -195.8125 78.703125 -193.53125 72.640625 -188.9375 C 57.8125 -177.75 45.015625 -154.84375 34.359375 -120.34375 C 23.71875 -85.84375 16.71875 -46.90625 13.484375 -3.234375 C 13.203125 1.078125 17.921875 5.25 21.96875 5.25 Z M 45.546875 -94.609375 C 52.828125 -124.390625 61.859375 -147.5625 72.78125 -163.875 C 78.4375 -172.359375 84.09375 -176.8125 89.75 -177.484375 C 90.828125 -177.625 92.453125 -177.078125 94.875 -175.734375 C 97.296875 -174.390625 99.734375 -172.234375 102.421875 -168.734375 C 113.0625 -155.25 123.578125 -130.453125 133.6875 -94.609375 Z M 45.546875 -94.609375 "/>
</symbol>
<symbol overflow="visible" id="DBhGBcPm4-0">
<path style="stroke:none;" d="M 5.078125 -0.109375 L 68.359375 -0.109375 L 68.359375 -126.21875 L 5.078125 -126.21875 Z M 11.5 -6.203125 L 11.5 -119.90625 L 62.265625 -119.90625 L 62.265625 -6.203125 Z M 11.5 -6.203125 "/>
</symbol>
<symbol overflow="visible" id="DBhGBcPm4-1">
<path style="stroke:none;" d="M 55.5 -146.96875 C 89.109375 -146.96875 112.34375 -144.265625 124.859375 -138.734375 C 125.984375 -138.171875 127.125 -137.953125 128.140625 -137.953125 C 132.3125 -137.953125 134.90625 -141.109375 135.015625 -144.9375 C 135.125 -148.203125 133.765625 -150.6875 130.84375 -152.046875 C 118.4375 -157.578125 98.015625 -160.625 69.25 -161.515625 C 54.484375 -161.96875 40.609375 -161.859375 27.75 -161.0625 L 19.625 -160.5 C 16.015625 -160.28125 12.75 -157.015625 12.75 -153.28125 C 12.75 -130.609375 13.53125 -109.75 13.53125 -90.90625 C 13.53125 -65.984375 11.28125 -11.734375 11.28125 -7.5625 C 11.28125 -3.390625 14.890625 0.109375 18.609375 0.109375 C 71.84375 0.109375 105.90625 -0.453125 120.6875 -1.8125 C 125.09375 -2.140625 127.125 -5.53125 127.125 -9.03125 C 127.125 -12.75 124.640625 -16.921875 120.125 -16.46875 C 106.703125 -15.34375 75.578125 -14.65625 26.28125 -14.546875 L 26.84375 -25.375 C 27.40625 -37.21875 27.859375 -53.125 28.078125 -73.203125 L 109.859375 -72.640625 C 114.59375 -72.53125 116.96875 -76.25 116.96875 -79.96875 C 116.96875 -83.578125 114.59375 -87.296875 109.96875 -87.296875 L 28.203125 -87.859375 C 28.203125 -105.125 27.96875 -124.640625 27.515625 -146.296875 C 34.625 -146.75 46.015625 -146.96875 55.5 -146.96875 Z M 55.5 -146.96875 "/>
</symbol>
<symbol overflow="visible" id="DBhGBcPm5-0">
<path style="stroke:none;" d="M 4.328125 -0.09375 L 58.359375 -0.09375 L 58.359375 -107.78125 L 4.328125 -107.78125 Z M 9.828125 -5.296875 L 9.828125 -102.375 L 53.171875 -102.375 L 53.171875 -5.296875 Z M 9.828125 -5.296875 "/>
</symbol>
<symbol overflow="visible" id="DBhGBcPm5-1">
<path style="stroke:none;" d="M 76.28125 -61.15625 C 85.8125 -61.15625 92.84375 -60 97.1875 -57.6875 C 103.53125 -54.421875 110.09375 -47.96875 110.09375 -39.484375 C 110.09375 -38.234375 109.890625 -36.890625 109.609375 -35.546875 C 107.671875 -27.25 102.484375 -21.1875 93.90625 -17.234375 C 86.875 -13.96875 79.75 -12.421875 72.234375 -12.421875 C 70.59375 -12.421875 68.953125 -12.421875 67.328125 -12.609375 C 49.03125 -14.34375 33.90625 -20.515625 21.953125 -30.921875 C 20.703125 -31.96875 19.359375 -32.453125 18.109375 -32.453125 C 14.734375 -32.453125 11.65625 -29.28125 11.65625 -25.90625 C 11.65625 -24.375 12.234375 -22.828125 13.765625 -21.484375 C 27.734375 -9.25 45.078125 -2.21875 66.078125 -0.1875 C 68.1875 0 70.40625 0.09375 72.53125 0.09375 C 81.578125 0.09375 90.25 -1.734375 98.34375 -5.484375 C 111.140625 -11.359375 119.046875 -20.609375 121.9375 -33.234375 C 122.421875 -35.4375 122.703125 -37.5625 122.703125 -39.578125 C 122.703125 -52.96875 112.875 -63.765625 103.25 -68.671875 C 96.890625 -72.046875 87.734375 -73.6875 75.984375 -73.6875 C 70.5 -73.6875 64.234375 -73.109375 59.421875 -73.109375 C 45.84375 -73.109375 37.375 -75.796875 30.53125 -81.859375 C 26.09375 -85.8125 22.15625 -91.890625 22.15625 -99.390625 C 22.15625 -101.609375 22.53125 -103.921875 23.3125 -106.328125 C 27.15625 -117.984375 39.390625 -123.671875 55.09375 -123.671875 C 78.203125 -123.671875 97.28125 -114.609375 109.609375 -102.765625 C 110.859375 -101.609375 112.390625 -101.03125 114.125 -101.03125 C 117.796875 -101.125 120.203125 -104.21875 120.203125 -107.390625 C 120.203125 -109.03125 119.625 -110.5625 118.265625 -111.8125 C 103.640625 -125.78125 81.859375 -136.1875 54.421875 -136.1875 C 33.421875 -136.1875 16.859375 -126.453125 11.46875 -110.28125 C 10.203125 -106.515625 9.625 -102.859375 9.625 -99.390625 C 9.625 -88.125 15.5 -78.6875 21.953125 -72.8125 C 31.59375 -64.046875 42.46875 -60.578125 59.421875 -60.578125 C 64.4375 -60.578125 70.59375 -61.15625 76.28125 -61.15625 Z M 76.28125 -61.15625 "/>
</symbol>
</g>
<clipPath id="clip1">
  <path d="M 21 12 L 1179 12 L 1179 641 L 21 641 Z M 21 12 "/>
</clipPath>
<clipPath id="clip2">
  <path d="M 600 0 L 963 0 L 963 337.5 L 600 337.5 Z M 600 0 "/>
</clipPath>
<clipPath id="clip3">
  <path d="M 665 0 L 1200 0 L 1200 337.5 L 665 337.5 Z M 665 0 "/>
</clipPath>
</defs>
<g id="surface1">
<rect x="0" y="0" width="1200" height="675" style="fill:rgb(100%,100%,100%);fill-opacity:1;stroke:none;"/>
<path style=" stroke:none;fill-rule:nonzero;fill:rgb(100%,100%,100%);fill-opacity:1;" d="M 21 663 L 1179 663 L 1179 12 L 21 12 Z M 21 663 "/>
<path style=" stroke:none;fill-rule:nonzero;fill:rgb(100%,100%,100%);fill-opacity:1;" d="M 600 337.5 L 1200 337.5 L 1200 0 L 600 0 Z M 600 337.5 "/>
<g style="fill:rgb(0%,0%,0%);fill-opacity:1;">
  <use xlink:href="#DBhGBcPm0-1" x="8.007812" y="576.199219"/>
</g>
<g style="fill:rgb(0%,0%,0%);fill-opacity:1;">
  <use xlink:href="#DBhGBcPm1-1" x="285.015625" y="612.367188"/>
</g>
<g style="fill:rgb(0%,0%,0%);fill-opacity:1;">
  <use xlink:href="#DBhGBcPm2-1" x="498.300781" y="630.449219"/>
</g>
<g style="fill:rgb(0%,0%,0%);fill-opacity:1;">
  <use xlink:href="#DBhGBcPm3-1" x="709.832031" y="637.683594"/>
</g>
<g style="fill:rgb(0%,0%,0%);fill-opacity:1;">
  <use xlink:href="#DBhGBcPm4-1" x="898.484375" y="644.917969"/>
</g>
<g style="fill:rgb(0%,0%,0%);fill-opacity:1;">
  <use xlink:href="#DBhGBcPm5-1" x="1039.816406" y="648.535156"/>
</g>
<g clip-path="url(#clip1)" clip-rule="nonzero">
<path style="fill:none;stroke-width:14;stroke-linecap:butt;stroke-linejoin:miter;stroke:rgb(58.431375%,34.509805%,69.803923%);stroke-opacity:1;stroke-miterlimit:10;" d="M 28 19.75 L 77.807292 24.635417 L 127.614583 136.213542 L 177.421875 139.557292 L 227.223958 211.880208 L 277.03125 225.911458 L 326.838542 270.369792 L 376.645833 293 L 426.453125 321.3125 L 476.260417 343.484375 L 526.0625 368.119792 L 575.869792 387.78125 L 625.677083 410.03125 L 675.484375 423.473958 L 725.291667 448.796875 L 775.098958 458.932292 L 824.901042 482.708333 L 874.708333 493.75 L 924.515625 508.484375 L 974.322917 521.927083 L 1024.130208 538.234375 L 1073.9375 549.875 L 1123.739583 564.072917 L 1173.546875 573.640625 L 1223.354167 588.104167 L 1273.161458 597.104167 L 1322.96875 610.557292 L 1372.776042 618.895833 L 1422.578125 630.807292 L 1472.385417 638.354167 L 1522.192708 650.598958 L 1572 656.0625 " transform="matrix(0.75,0,0,0.75,0,0)"/>
</g>
<path style=" stroke:none;fill-rule:nonzero;fill:rgb(58.431375%,34.509805%,69.803923%);fill-opacity:0.12;" d="M 21 14.8125 L 58.355469 18.476562 L 95.710938 102.160156 L 133.066406 104.667969 L 170.417969 158.910156 L 207.773438 169.433594 L 245.128906 202.777344 L 282.484375 219.75 L 319.839844 240.984375 L 357.195312 257.613281 L 394.546875 276.089844 L 431.902344 290.835938 L 469.257812 307.523438 L 506.613281 317.605469 L 543.96875 336.597656 L 581.324219 344.199219 L 618.675781 362.03125 L 656.03125 370.3125 L 693.386719 381.363281 L 730.742188 391.445312 L 768.097656 403.675781 L 805.453125 412.40625 L 842.804688 423.054688 L 880.160156 430.230469 L 917.515625 441.078125 L 954.871094 447.828125 L 992.226562 457.917969 L 1029.582031 464.171875 L 1066.933594 473.105469 L 1104.289062 478.765625 L 1141.644531 487.949219 L 1179 492.046875 L 1179 663 L 21 663 Z M 21 14.8125 "/>
<path style=" stroke:none;fill-rule:nonzero;fill:rgb(79.607844%,23.529412%,20%);fill-opacity:0.35;" d="M 627.273438 322.160156 L 710.125 322.160156 L 717.03125 315.5625 L 723.933594 249.410156 L 730.839844 227.222656 L 737.746094 214.453125 L 744.648438 178.28125 L 751.554688 148.253906 L 758.457031 152.5 L 765.363281 191.773438 L 772.265625 318.421875 L 779.171875 322.160156 L 813.695312 322.160156 Z M 627.273438 322.160156 "/>
<g clip-path="url(#clip2)" clip-rule="nonzero">
<path style="fill:none;stroke-width:14;stroke-linecap:butt;stroke-linejoin:miter;stroke:rgb(79.607844%,23.529412%,20%);stroke-opacity:1;stroke-miterlimit:10;" d="M 836.364583 429.546875 L 946.833333 429.546875 L 956.041667 420.75 L 965.244792 332.546875 L 974.453125 302.963542 L 983.661458 285.9375 L 992.864583 237.708333 L 1002.072917 197.671875 L 1011.276042 203.333333 L 1020.484375 255.697917 L 1029.6875 424.5625 L 1038.895833 429.546875 L 1084.927083 429.546875 " transform="matrix(0.75,0,0,0.75,0,0)"/>
</g>
<path style=" stroke:none;fill-rule:nonzero;fill:rgb(21.960784%,59.607846%,14.901961%);fill-opacity:0.35;" d="M 813.695312 322.160156 L 937.976562 322.160156 L 944.878906 274.082031 L 951.785156 222.523438 L 958.6875 175.058594 L 965.59375 132.617188 L 972.496094 95.972656 L 979.402344 65.730469 L 986.304688 42.328125 L 993.210938 26.054688 L 1000.113281 17.054688 L 1007.019531 15.339844 L 1013.925781 20.808594 L 1020.828125 33.257812 L 1027.734375 52.398438 L 1034.636719 77.871094 L 1041.542969 109.265625 L 1048.445312 146.125 L 1055.351562 187.96875 L 1062.253906 234.300781 L 1069.160156 284.609375 L 1076.066406 322.160156 L 1172.726562 322.160156 Z M 813.695312 322.160156 "/>
<g clip-path="url(#clip3)" clip-rule="nonzero">
<path style="fill:none;stroke-width:14;stroke-linecap:butt;stroke-linejoin:miter;stroke:rgb(21.960784%,59.607846%,14.901961%);stroke-opacity:1;stroke-miterlimit:10;" d="M 1084.927083 429.546875 L 1250.635417 429.546875 L 1259.838542 365.442708 L 1269.046875 296.697917 L 1278.25 233.411458 L 1287.458333 176.822917 L 1296.661458 127.963542 L 1305.869792 87.640625 L 1315.072917 56.4375 L 1324.28125 34.739583 L 1333.484375 22.739583 L 1342.692708 20.453125 L 1351.901042 27.744792 L 1361.104167 44.34375 L 1370.3125 69.864583 L 1379.515625 103.828125 L 1388.723958 145.6875 L 1397.927083 194.833333 L 1407.135417 250.625 L 1416.338542 312.401042 L 1425.546875 379.479167 L 1434.755208 429.546875 L 1563.635417 429.546875 " transform="matrix(0.75,0,0,0.75,0,0)"/>
</g>
</g>
</svg>
