<?xml version="1.0" encoding="UTF-8" standalone="no"?>
<svg
   xmlns:dc="http://purl.org/dc/elements/1.1/"
   xmlns:cc="http://creativecommons.org/ns#"
   xmlns:rdf="http://www.w3.org/1999/02/22-rdf-syntax-ns#"
   xmlns:svg="http://www.w3.org/2000/svg"
   xmlns="http://www.w3.org/2000/svg"
   xmlns:xlink="http://www.w3.org/1999/xlink"
   xmlns:sodipodi="http://sodipodi.sourceforge.net/DTD/sodipodi-0.dtd"
   xmlns:inkscape="http://www.inkscape.org/namespaces/inkscape"
   width="1200pt"
   height="675pt"
   viewBox="0 0 1200 675"
   version="1.1"
   id="svg100"
   sodipodi:docname="decaes-mrhub.svg"
   inkscape:version="0.92.5 (2060ec1f9f, 2020-04-08)"
   inkscape:export-filename="/home/jdoucette/.julia/dev/DECAES/docs/src/assets/decaes-mrhub.png"
   inkscape:export-xdpi="15.53"
   inkscape:export-ydpi="15.53">
  <metadata
     id="metadata104">
    <rdf:RDF>
      <cc:Work
         rdf:about="">
        <dc:format>image/svg+xml</dc:format>
        <dc:type
           rdf:resource="http://purl.org/dc/dcmitype/StillImage" />
        <dc:title></dc:title>
      </cc:Work>
    </rdf:RDF>
  </metadata>
  <sodipodi:namedview
     pagecolor="#ffffff"
     bordercolor="#666666"
     borderopacity="1"
     objecttolerance="10"
     gridtolerance="10"
     guidetolerance="10"
     inkscape:pageopacity="0"
     inkscape:pageshadow="2"
     inkscape:window-width="1848"
     inkscape:window-height="1016"
     id="namedview102"
     showgrid="false"
     inkscape:zoom="0.47875"
     inkscape:cx="698.49332"
     inkscape:cy="496.55358"
     inkscape:window-x="72"
     inkscape:window-y="446"
     inkscape:window-maximized="1"
     inkscape:current-layer="svg100" />
  <defs
     id="defs49">
    <g
       id="g38">
      <symbol
         overflow="visible"
         id="DBhGBcPm0-0">
        <path
           style="stroke:none;"
           d="M 12.359375 -0.28125 L 166.4375 -0.28125 L 166.4375 -307.34375 L 12.359375 -307.34375 Z M 28.015625 -15.109375 L 28.015625 -291.96875 L 151.609375 -291.96875 L 151.609375 -15.109375 Z M 28.015625 -15.109375 "
           id="path2" />
      </symbol>
      <symbol
         overflow="visible"
         id="DBhGBcPm0-1">
        <path
           style="stroke:none;"
           d="M 29.109375 -14.5625 C 29.9375 -5.5 37.359375 2.75 46.96875 2.75 C 47.515625 2.75 47.796875 2.75 48.34375 2.75 C 162.046875 -5.765625 251.03125 -57.125 269.4375 -154.359375 C 271.90625 -166.4375 272.734375 -178.53125 272.734375 -190.34375 C 272.734375 -268.609375 225.21875 -335.625 176.875 -367.5 C 146.671875 -387.265625 114.8125 -397.15625 81.03125 -397.15625 C 68.109375 -397.15625 54.9375 -395.78125 41.46875 -392.765625 C 34.0625 -391.109375 27.46875 -383.96875 27.46875 -375.1875 Z M 63.171875 -360.359375 C 69.21875 -361.171875 74.984375 -361.453125 80.75 -361.453125 C 107.390625 -361.453125 132.390625 -353.765625 155.734375 -338.65625 C 197.203125 -311.46875 236.75 -256.25 236.75 -189.78125 C 236.75 -179.625 235.9375 -168.921875 233.734375 -157.921875 C 219.734375 -84.875 148.859375 -45.046875 64.8125 -34.875 Z M 63.171875 -360.359375 "
           id="path5" />
      </symbol>
      <symbol
         overflow="visible"
         id="DBhGBcPm1-0">
        <path
           style="stroke:none;"
           d="M 8.53125 -0.1875 L 114.953125 -0.1875 L 114.953125 -212.265625 L 8.53125 -212.265625 Z M 19.34375 -10.4375 L 19.34375 -201.640625 L 104.71875 -201.640625 L 104.71875 -10.4375 Z M 19.34375 -10.4375 "
           id="path8" />
      </symbol>
      <symbol
         overflow="visible"
         id="DBhGBcPm1-1">
        <path
           style="stroke:none;"
           d="M 93.328125 -247.171875 C 149.859375 -247.171875 188.9375 -242.625 210 -233.328125 C 211.890625 -232.375 213.78125 -232 215.5 -232 C 222.515625 -232 226.875 -237.3125 227.0625 -243.765625 C 227.25 -249.265625 224.984375 -253.4375 220.046875 -255.71875 C 199.1875 -265 164.84375 -270.125 116.46875 -271.640625 C 91.625 -272.40625 68.296875 -272.21875 46.671875 -270.890625 L 33 -269.9375 C 26.9375 -269.5625 21.4375 -264.0625 21.4375 -257.796875 C 21.4375 -219.671875 22.765625 -184.578125 22.765625 -152.890625 C 22.765625 -110.96875 18.96875 -19.734375 18.96875 -12.703125 C 18.96875 -5.6875 25.046875 0.1875 31.296875 0.1875 C 120.84375 0.1875 178.125 -0.765625 202.96875 -3.03125 C 210.375 -3.609375 213.78125 -9.296875 213.78125 -15.171875 C 213.78125 -21.4375 209.609375 -28.453125 202.03125 -27.703125 C 179.453125 -25.796875 127.09375 -24.65625 44.203125 -24.46875 L 45.140625 -42.6875 C 46.09375 -62.59375 46.859375 -89.34375 47.234375 -123.109375 L 184.765625 -122.171875 C 192.734375 -121.96875 196.71875 -128.234375 196.71875 -134.5 C 196.71875 -140.5625 192.734375 -146.828125 184.953125 -146.828125 L 47.421875 -147.78125 C 47.421875 -176.796875 47.046875 -209.609375 46.28125 -246.03125 C 58.234375 -246.796875 77.390625 -247.171875 93.328125 -247.171875 Z M 93.328125 -247.171875 "
           id="path11" />
      </symbol>
      <symbol
         overflow="visible"
         id="DBhGBcPm2-0">
        <path
           style="stroke:none;"
           d="M 6.9375 -0.15625 L 93.4375 -0.15625 L 93.4375 -172.515625 L 6.9375 -172.515625 Z M 15.71875 -8.484375 L 15.71875 -163.890625 L 85.109375 -163.890625 L 85.109375 -8.484375 Z M 15.71875 -8.484375 "
           id="path14" />
      </symbol>
      <symbol
         overflow="visible"
         id="DBhGBcPm2-1">
        <path
           style="stroke:none;"
           d="M 125.5 2.921875 C 144.3125 2.921875 165.125 0.15625 188.09375 -5.234375 C 193.328125 -6.46875 195.640625 -10.484375 195.640625 -14.5 C 195.640625 -19.734375 191.953125 -24.96875 185.9375 -24.96875 C 185.15625 -24.96875 184.390625 -24.828125 183.46875 -24.671875 C 162.03125 -19.578125 142.921875 -17.109375 125.8125 -17.109375 C 74.3125 -17.109375 35.453125 -41.3125 35.453125 -91.734375 C 35.453125 -133.359375 63.828125 -168.359375 92.203125 -185.015625 C 111 -195.953125 131.671875 -201.65625 154.015625 -201.65625 C 163.109375 -201.65625 172.375 -200.734375 181.921875 -198.890625 C 182.703125 -198.734375 183.46875 -198.734375 184.078125 -198.734375 C 189.9375 -198.734375 193.328125 -203.8125 193.328125 -208.90625 C 193.328125 -213.21875 191.015625 -217.546875 185.625 -218.46875 C 174.6875 -220.46875 163.890625 -221.546875 153.5625 -221.546875 C 127.8125 -221.546875 104.0625 -215.078125 82.171875 -202.28125 C 48.40625 -182.390625 15.578125 -141.53125 15.578125 -91.265625 C 15.578125 -30.21875 62.75 2.921875 125.5 2.921875 Z M 125.5 2.921875 "
           id="path17" />
      </symbol>
      <symbol
         overflow="visible"
         id="DBhGBcPm3-0">
        <path
           style="stroke:none;"
           d="M 6.0625 -0.140625 L 81.671875 -0.140625 L 81.671875 -150.796875 L 6.0625 -150.796875 Z M 13.75 -7.40625 L 13.75 -143.25 L 74.390625 -143.25 L 74.390625 -7.40625 Z M 13.75 -7.40625 "
           id="path20" />
      </symbol>
      <symbol
         overflow="visible"
         id="DBhGBcPm3-1">
        <path
           style="stroke:none;"
           d="M 21.96875 5.25 C 26.421875 5.25 30.59375 1.890625 31 -2.703125 C 32.75 -25.734375 36.25 -50.53125 41.640625 -77.09375 L 138.265625 -77.09375 C 143.125 -58.078125 147.5625 -36.921875 151.75 -13.75 L 153.765625 -2.015625 C 154.71875 2.828125 158.34375 4.984375 162.125 4.984375 C 166.703125 4.984375 171.28125 1.890625 171.28125 -3.5 C 171.28125 -4.046875 171.28125 -4.453125 171.15625 -4.984375 L 169 -16.84375 C 159.703125 -68.46875 148.78125 -110.109375 136.390625 -141.640625 C 122.09375 -177.75 106.734375 -195.8125 90.421875 -195.8125 C 84.640625 -195.8125 78.703125 -193.53125 72.640625 -188.9375 C 57.8125 -177.75 45.015625 -154.84375 34.359375 -120.34375 C 23.71875 -85.84375 16.71875 -46.90625 13.484375 -3.234375 C 13.203125 1.078125 17.921875 5.25 21.96875 5.25 Z M 45.546875 -94.609375 C 52.828125 -124.390625 61.859375 -147.5625 72.78125 -163.875 C 78.4375 -172.359375 84.09375 -176.8125 89.75 -177.484375 C 90.828125 -177.625 92.453125 -177.078125 94.875 -175.734375 C 97.296875 -174.390625 99.734375 -172.234375 102.421875 -168.734375 C 113.0625 -155.25 123.578125 -130.453125 133.6875 -94.609375 Z M 45.546875 -94.609375 "
           id="path23" />
      </symbol>
      <symbol
         overflow="visible"
         id="DBhGBcPm4-0">
        <path
           style="stroke:none;"
           d="M 5.078125 -0.109375 L 68.359375 -0.109375 L 68.359375 -126.21875 L 5.078125 -126.21875 Z M 11.5 -6.203125 L 11.5 -119.90625 L 62.265625 -119.90625 L 62.265625 -6.203125 Z M 11.5 -6.203125 "
           id="path26" />
      </symbol>
      <symbol
         overflow="visible"
         id="DBhGBcPm4-1">
        <path
           style="stroke:none;"
           d="M 55.5 -146.96875 C 89.109375 -146.96875 112.34375 -144.265625 124.859375 -138.734375 C 125.984375 -138.171875 127.125 -137.953125 128.140625 -137.953125 C 132.3125 -137.953125 134.90625 -141.109375 135.015625 -144.9375 C 135.125 -148.203125 133.765625 -150.6875 130.84375 -152.046875 C 118.4375 -157.578125 98.015625 -160.625 69.25 -161.515625 C 54.484375 -161.96875 40.609375 -161.859375 27.75 -161.0625 L 19.625 -160.5 C 16.015625 -160.28125 12.75 -157.015625 12.75 -153.28125 C 12.75 -130.609375 13.53125 -109.75 13.53125 -90.90625 C 13.53125 -65.984375 11.28125 -11.734375 11.28125 -7.5625 C 11.28125 -3.390625 14.890625 0.109375 18.609375 0.109375 C 71.84375 0.109375 105.90625 -0.453125 120.6875 -1.8125 C 125.09375 -2.140625 127.125 -5.53125 127.125 -9.03125 C 127.125 -12.75 124.640625 -16.921875 120.125 -16.46875 C 106.703125 -15.34375 75.578125 -14.65625 26.28125 -14.546875 L 26.84375 -25.375 C 27.40625 -37.21875 27.859375 -53.125 28.078125 -73.203125 L 109.859375 -72.640625 C 114.59375 -72.53125 116.96875 -76.25 116.96875 -79.96875 C 116.96875 -83.578125 114.59375 -87.296875 109.96875 -87.296875 L 28.203125 -87.859375 C 28.203125 -105.125 27.96875 -124.640625 27.515625 -146.296875 C 34.625 -146.75 46.015625 -146.96875 55.5 -146.96875 Z M 55.5 -146.96875 "
           id="path29" />
      </symbol>
      <symbol
         overflow="visible"
         id="DBhGBcPm5-0">
        <path
           style="stroke:none;"
           d="M 4.328125 -0.09375 L 58.359375 -0.09375 L 58.359375 -107.78125 L 4.328125 -107.78125 Z M 9.828125 -5.296875 L 9.828125 -102.375 L 53.171875 -102.375 L 53.171875 -5.296875 Z M 9.828125 -5.296875 "
           id="path32" />
      </symbol>
      <symbol
         overflow="visible"
         id="DBhGBcPm5-1">
        <path
           style="stroke:none;"
           d="M 76.28125 -61.15625 C 85.8125 -61.15625 92.84375 -60 97.1875 -57.6875 C 103.53125 -54.421875 110.09375 -47.96875 110.09375 -39.484375 C 110.09375 -38.234375 109.890625 -36.890625 109.609375 -35.546875 C 107.671875 -27.25 102.484375 -21.1875 93.90625 -17.234375 C 86.875 -13.96875 79.75 -12.421875 72.234375 -12.421875 C 70.59375 -12.421875 68.953125 -12.421875 67.328125 -12.609375 C 49.03125 -14.34375 33.90625 -20.515625 21.953125 -30.921875 C 20.703125 -31.96875 19.359375 -32.453125 18.109375 -32.453125 C 14.734375 -32.453125 11.65625 -29.28125 11.65625 -25.90625 C 11.65625 -24.375 12.234375 -22.828125 13.765625 -21.484375 C 27.734375 -9.25 45.078125 -2.21875 66.078125 -0.1875 C 68.1875 0 70.40625 0.09375 72.53125 0.09375 C 81.578125 0.09375 90.25 -1.734375 98.34375 -5.484375 C 111.140625 -11.359375 119.046875 -20.609375 121.9375 -33.234375 C 122.421875 -35.4375 122.703125 -37.5625 122.703125 -39.578125 C 122.703125 -52.96875 112.875 -63.765625 103.25 -68.671875 C 96.890625 -72.046875 87.734375 -73.6875 75.984375 -73.6875 C 70.5 -73.6875 64.234375 -73.109375 59.421875 -73.109375 C 45.84375 -73.109375 37.375 -75.796875 30.53125 -81.859375 C 26.09375 -85.8125 22.15625 -91.890625 22.15625 -99.390625 C 22.15625 -101.609375 22.53125 -103.921875 23.3125 -106.328125 C 27.15625 -117.984375 39.390625 -123.671875 55.09375 -123.671875 C 78.203125 -123.671875 97.28125 -114.609375 109.609375 -102.765625 C 110.859375 -101.609375 112.390625 -101.03125 114.125 -101.03125 C 117.796875 -101.125 120.203125 -104.21875 120.203125 -107.390625 C 120.203125 -109.03125 119.625 -110.5625 118.265625 -111.8125 C 103.640625 -125.78125 81.859375 -136.1875 54.421875 -136.1875 C 33.421875 -136.1875 16.859375 -126.453125 11.46875 -110.28125 C 10.203125 -106.515625 9.625 -102.859375 9.625 -99.390625 C 9.625 -88.125 15.5 -78.6875 21.953125 -72.8125 C 31.59375 -64.046875 42.46875 -60.578125 59.421875 -60.578125 C 64.4375 -60.578125 70.59375 -61.15625 76.28125 -61.15625 Z M 76.28125 -61.15625 "
           id="path35" />
      </symbol>
    </g>
    <clipPath
       id="clip1">
      <path
         d="M 21 12 L 1179 12 L 1179 641 L 21 641 Z M 21 12 "
         id="path40" />
    </clipPath>
    <clipPath
       id="clip2">
      <path
         d="M 600 0 L 963 0 L 963 337.5 L 600 337.5 Z M 600 0 "
         id="path43" />
    </clipPath>
    <clipPath
       id="clip3">
      <path
         d="M 665 0 L 1200 0 L 1200 337.5 L 665 337.5 Z M 665 0 "
         id="path46" />
    </clipPath>
  </defs>
  <g
     id="g4660">
    <use
       height="100%"
       width="100%"
       id="use57"
       y="576.19922"
       x="8.0078115"
       xlink:href="#DBhGBcPm0-1"
       style="fill:#000000;fill-opacity:1" />
    <use
       height="100%"
       width="100%"
       id="use61"
       y="612.36719"
       x="285.01562"
       xlink:href="#DBhGBcPm1-1"
       style="fill:#000000;fill-opacity:1" />
    <use
       height="100%"
       width="100%"
       id="use65"
       y="630.44922"
       x="498.30078"
       xlink:href="#DBhGBcPm2-1"
       style="fill:#000000;fill-opacity:1" />
    <use
       height="100%"
       width="100%"
       id="use69"
       y="637.68359"
       x="709.83203"
       xlink:href="#DBhGBcPm3-1"
       style="fill:#000000;fill-opacity:1" />
    <use
       height="100%"
       width="100%"
       id="use73"
       y="644.91797"
       x="898.48438"
       xlink:href="#DBhGBcPm4-1"
       style="fill:#000000;fill-opacity:1" />
    <use
       height="100%"
       width="100%"
       id="use77"
       y="648.53516"
       x="1039.8164"
       xlink:href="#DBhGBcPm5-1"
       style="fill:#000000;fill-opacity:1" />
    <path
       inkscape:connector-curvature="0"
       id="path81"
       d="m 21,14.8125 37.355469,3.664063 37.355466,83.683597 37.355465,2.50781 37.35157,54.24219 37.35547,10.52343 37.35547,33.34375 37.35546,16.97266 37.35547,21.23437 37.35548,16.62891 37.35156,18.47656 37.35546,14.7461 37.35547,16.6875 37.35547,10.08203 37.35547,18.99218 37.35547,7.60157 37.35156,17.83203 37.35547,8.28125 37.35546,11.05078 37.35548,10.08203 37.35546,12.23047 37.35547,8.73047 37.35158,10.64844 37.35547,7.17577 37.35548,10.84767 37.35547,6.75 37.35548,10.08984 37.3554,6.2539 37.3516,8.9336 37.3554,5.66016 37.3555,9.18359 37.3555,4.09765"
       style="clip-rule:nonzero;fill:none;stroke:#9457b0;stroke-width:10.5;stroke-linecap:butt;stroke-linejoin:miter;stroke-miterlimit:10;stroke-opacity:1" />
    <path
       style="fill:#9457b0;fill-opacity:0.12000002;fill-rule:nonzero;stroke:none"
       d="m 21,14.8125 37.355469,3.664062 37.355469,83.683598 37.355472,2.50781 37.35156,54.24219 37.35547,10.52343 37.35547,33.34375 37.35546,16.97266 37.35547,21.23437 37.35547,16.62891 37.35156,18.47656 37.35547,14.7461 37.35547,16.6875 37.35547,10.08203 37.35547,18.99219 37.35547,7.60156 37.35156,17.83203 37.35547,8.28125 37.35547,11.05078 37.35547,10.08203 37.35547,12.23047 37.35546,8.73047 37.35157,10.64844 37.35547,7.17578 37.35546,10.84765 37.35547,6.75 37.35547,10.08985 37.35544,6.2539 37.3516,8.9336 37.3555,5.66015 37.3554,9.1836 37.3555,4.09765 V 663 H 21 Z m 0,0"
       id="path85"
       inkscape:connector-curvature="0" />
    <path
       style="fill:#ca3a33;fill-opacity:0.35;fill-rule:nonzero;stroke:none"
       d="M 627.27344,322.16016 H 710.125 l 6.90625,-6.59766 6.90234,-66.15234 6.90625,-22.1875 6.90625,-12.76954 6.90235,-36.17187 6.90625,-30.02734 6.90234,4.24609 6.90625,39.27344 6.90234,126.64843 6.90625,3.73829 h 34.52344 z m 0,0"
       id="path87"
       inkscape:connector-curvature="0" />
    <path
       inkscape:connector-curvature="0"
       id="path89"
       d="M 627.27344,322.16015 H 710.125 l 6.90625,-6.59765 6.90234,-66.15235 6.90625,-22.18749 6.90626,-12.76954 6.90234,-36.17187 6.90624,-30.02735 6.90232,4.2461 6.9063,39.27344 6.90232,126.64843 6.90623,3.73828 h 34.52348"
       style="clip-rule:nonzero;fill:none;stroke:#ca3a33;stroke-width:10.5;stroke-linecap:butt;stroke-linejoin:miter;stroke-miterlimit:10;stroke-opacity:1" />
    <path
       style="fill:#359723;fill-opacity:0.35;fill-rule:nonzero;stroke:none"
       d="m 813.69531,322.16016 h 124.28125 l 6.90235,-48.07813 6.90625,-51.55859 6.90234,-47.46485 6.90625,-42.4414 6.90234,-36.644534 6.90625,-30.242187 6.90235,-23.402344 6.90625,-16.273437 6.90236,-9 6.9062,-1.714844 6.9063,5.46875 6.9023,12.449218 6.9063,19.140626 6.9023,25.472656 6.9063,31.394536 6.9023,36.85937 6.9063,41.84375 6.9023,46.33203 6.9063,50.30859 6.9062,37.55079 h 96.6602 z m 0,0"
       id="path93"
       inkscape:connector-curvature="0" />
    <path
       inkscape:connector-curvature="0"
       id="path95"
       d="m 813.69533,322.16015 h 124.28122 l 6.90233,-48.07812 6.90629,-51.55859 6.90233,-47.46484 6.90622,-42.44141 6.9024,-36.644535 6.90623,-30.242186 6.90232,-23.402344 6.9063,-16.273438 6.90233,-9 6.9062,-1.714843 6.9062,5.46875 6.9024,12.449219 6.9063,19.140624 6.9023,25.472661 6.9063,31.394532 6.9023,36.85937 6.9062,41.84375 6.9024,46.33203 6.9063,50.3086 6.9062,37.55077 h 96.6601"
       style="clip-rule:nonzero;fill:none;stroke:#359723;stroke-width:10.5;stroke-linecap:butt;stroke-linejoin:miter;stroke-miterlimit:10;stroke-opacity:1" />
  </g>
</svg>
