<?xml version="1.0" encoding="UTF-8"?>
<svg xmlns="http://www.w3.org/2000/svg" xmlns:xlink="http://www.w3.org/1999/xlink" width="1200pt" height="675pt" viewBox="0 0 1200 675" version="1.1">
<defs>
<g>
<symbol overflow="visible" id="IPMpHYrV0-0">
<path style="stroke:none;" d="M 26.140625 0 L 236.359375 0 L 236.359375 -262.5 L 26.140625 -262.5 Z M 52.296875 -26.140625 L 52.296875 -236.359375 L 210.203125 -236.359375 L 210.203125 -26.140625 Z M 52.296875 -26.140625 "/>
</symbol>
<symbol overflow="visible" id="IPMpHYrV0-1">
<path style="stroke:none;" d="M 77.421875 -39.484375 L 77.421875 -343.25 L 121.515625 -343.25 C 209.6875 -343.25 280.4375 -277.109375 280.4375 -190.984375 C 280.4375 -105.609375 209.6875 -39.484375 121.515625 -39.484375 Z M 36.65625 0 L 121.515625 0 C 231.21875 0 320.6875 -83.3125 320.6875 -190.984375 C 320.6875 -298.90625 231.21875 -382.734375 121.515625 -382.734375 L 36.65625 -382.734375 Z M 36.65625 0 "/>
</symbol>
<symbol overflow="visible" id="IPMpHYrV1-0">
<path style="stroke:none;" d="M 17.8125 0 L 161.0625 0 L 161.0625 -178.875 L 17.8125 -178.875 Z M 35.640625 -17.8125 L 35.640625 -161.0625 L 143.234375 -161.0625 L 143.234375 -17.8125 Z M 35.640625 -17.8125 "/>
</symbol>
<symbol overflow="visible" id="IPMpHYrV1-1">
<path style="stroke:none;" d="M 175.203125 -163.859375 L 52.75 -163.859375 L 52.75 -233.90625 L 186.21875 -233.90625 L 186.21875 -260.796875 L 24.984375 -260.796875 L 24.984375 0 L 185.34375 0 L 185.34375 -26.90625 L 52.75 -26.90625 L 52.75 -136.953125 L 175.203125 -136.953125 Z M 175.203125 -163.859375 "/>
</symbol>
<symbol overflow="visible" id="IPMpHYrV2-0">
<path style="stroke:none;" d="M 15.421875 0 L 139.453125 0 L 139.453125 -154.875 L 15.421875 -154.875 Z M 30.859375 -15.421875 L 30.859375 -139.453125 L 124.015625 -139.453125 L 124.015625 -15.421875 Z M 30.859375 -15.421875 "/>
</symbol>
<symbol overflow="visible" id="IPMpHYrV2-1">
<path style="stroke:none;" d="M 210.984375 -61.703125 C 203.875 -52.03125 179.375 -20.71875 132.796875 -20.71875 C 80.46875 -20.71875 39.015625 -62.015625 39.015625 -112.375 C 39.015625 -163.1875 80.46875 -204.1875 132.796875 -204.1875 C 179.671875 -204.1875 203.875 -172.265625 211.296875 -162.890625 L 230.34375 -176.65625 C 221.421875 -188.90625 191.328125 -227.78125 132.796875 -227.78125 C 67.765625 -227.78125 14.828125 -176.359375 14.828125 -112.671875 C 14.828125 -49.15625 67.765625 1.96875 132.796875 1.96875 C 171.65625 1.96875 204.78125 -15.28125 230.34375 -49.15625 Z M 210.984375 -61.703125 "/>
</symbol>
<symbol overflow="visible" id="IPMpHYrV3-0">
<path style="stroke:none;" d="M 12.546875 0 L 113.453125 0 L 113.453125 -126 L 12.546875 -126 Z M 25.109375 -12.546875 L 25.109375 -113.453125 L 100.90625 -113.453125 L 100.90625 -12.546875 Z M 25.109375 -12.546875 "/>
</symbol>
<symbol overflow="visible" id="IPMpHYrV3-1">
<path style="stroke:none;" d="M 55.734375 -73.578125 L 85.390625 -136.578125 L 115.421875 -73.578125 Z M 46.765625 -54.640625 L 123.046875 -54.640625 L 146.1875 -0.25 L 167.21875 -0.25 L 85.15625 -185.5625 L 3.078125 -0.25 L 24 -0.25 Z M 46.765625 -54.640625 "/>
</symbol>
<symbol overflow="visible" id="IPMpHYrV4-0">
<path style="stroke:none;" d="M 10.203125 0 L 92.171875 0 L 92.171875 -102.375 L 10.203125 -102.375 Z M 20.390625 -10.203125 L 20.390625 -92.171875 L 81.984375 -92.171875 L 81.984375 -10.203125 Z M 20.390625 -10.203125 "/>
</symbol>
<symbol overflow="visible" id="IPMpHYrV4-1">
<path style="stroke:none;" d="M 100.28125 -93.78125 L 30.1875 -93.78125 L 30.1875 -133.875 L 106.578125 -133.875 L 106.578125 -149.265625 L 14.296875 -149.265625 L 14.296875 0 L 106.078125 0 L 106.078125 -15.390625 L 30.1875 -15.390625 L 30.1875 -78.375 L 100.28125 -78.375 Z M 100.28125 -93.78125 "/>
</symbol>
<symbol overflow="visible" id="IPMpHYrV5-0">
<path style="stroke:none;" d="M 9.15625 0 L 82.71875 0 L 82.71875 -91.875 L 9.15625 -91.875 Z M 18.296875 -9.15625 L 18.296875 -82.71875 L 73.578125 -82.71875 L 73.578125 -9.15625 Z M 18.296875 -9.15625 "/>
</symbol>
<symbol overflow="visible" id="IPMpHYrV5-1">
<path style="stroke:none;" d="M 90.4375 -106.40625 L 89.359375 -109.28125 C 83.34375 -126.5 68.09375 -135.296875 53.203125 -135.296875 C 32.921875 -135.296875 19.5625 -120.140625 19.5625 -102.640625 C 19.5625 -63.4375 83.53125 -72.859375 83.53125 -40.203125 C 83.53125 -23.140625 68.640625 -12.46875 53.03125 -12.46875 C 39.296875 -12.46875 26.28125 -20.71875 23.328125 -40.828125 L 22.875 -43.6875 L 8.796875 -41.984375 L 9.234375 -38.9375 C 13.28125 -10.671875 33.375 1.53125 53.03125 1.53125 C 76.078125 1.53125 97.625 -15.078125 97.625 -39.84375 C 97.625 -83.703125 33.5625 -76.078125 33.5625 -102.375 C 33.5625 -112.6875 41.359375 -121.296875 53.203125 -121.296875 C 62.625 -121.296875 72.046875 -116.09375 76.078125 -104.796875 L 77.078125 -101.828125 Z M 90.4375 -106.40625 "/>
</symbol>
</g>
<clipPath id="clip1">
  <path d="M 21 12 L 1179 12 L 1179 641 L 21 641 Z M 21 12 "/>
</clipPath>
<clipPath id="clip2">
  <path d="M 600 0 L 963 0 L 963 337.5 L 600 337.5 Z M 600 0 "/>
</clipPath>
<clipPath id="clip3">
  <path d="M 665 0 L 1200 0 L 1200 337.5 L 665 337.5 Z M 665 0 "/>
</clipPath>
</defs>
<g id="surface1">
<rect x="0" y="0" width="1200" height="675" style="fill:rgb(100%,100%,100%);fill-opacity:1;stroke:none;"/>
<path style=" stroke:none;fill-rule:nonzero;fill:rgb(100%,100%,100%);fill-opacity:1;" d="M 21 663 L 1179 663 L 1179 12 L 21 12 Z M 21 663 "/>
<path style=" stroke:none;fill-rule:nonzero;fill:rgb(100%,100%,100%);fill-opacity:1;" d="M 600 337.5 L 1200 337.5 L 1200 0 L 600 0 Z M 600 337.5 "/>
<g style="fill:rgb(0%,0%,0%);fill-opacity:1;">
  <use xlink:href="#IPMpHYrV0-1" x="-1.183594" y="576.199219"/>
</g>
<g style="fill:rgb(0%,0%,0%);fill-opacity:1;">
  <use xlink:href="#IPMpHYrV1-1" x="325.328125" y="612.367188"/>
</g>
<g style="fill:rgb(0%,0%,0%);fill-opacity:1;">
  <use xlink:href="#IPMpHYrV2-1" x="516.421875" y="630.449219"/>
</g>
<g style="fill:rgb(0%,0%,0%);fill-opacity:1;">
  <use xlink:href="#IPMpHYrV3-1" x="755.425781" y="637.683594"/>
</g>
<g style="fill:rgb(0%,0%,0%);fill-opacity:1;">
  <use xlink:href="#IPMpHYrV4-1" x="936" y="644.917969"/>
</g>
<g style="fill:rgb(0%,0%,0%);fill-opacity:1;">
  <use xlink:href="#IPMpHYrV5-1" x="1063.816406" y="648.535156"/>
</g>
<g clip-path="url(#clip1)" clip-rule="nonzero">
<path style="fill:none;stroke-width:14;stroke-linecap:butt;stroke-linejoin:miter;stroke:rgb(58.431375%,34.509805%,69.803923%);stroke-opacity:1;stroke-miterlimit:10;" d="M 28 19.75 L 77.807292 24.635417 L 127.614583 136.213542 L 177.421875 139.557292 L 227.223958 211.880208 L 277.03125 225.911458 L 326.838542 270.369792 L 376.645833 293 L 426.453125 321.3125 L 476.260417 343.484375 L 526.0625 368.119792 L 575.869792 387.78125 L 625.677083 410.03125 L 675.484375 423.473958 L 725.291667 448.796875 L 775.098958 458.932292 L 824.901042 482.708333 L 874.708333 493.75 L 924.515625 508.484375 L 974.322917 521.927083 L 1024.130208 538.234375 L 1073.9375 549.875 L 1123.739583 564.072917 L 1173.546875 573.640625 L 1223.354167 588.104167 L 1273.161458 597.104167 L 1322.96875 610.557292 L 1372.776042 618.895833 L 1422.578125 630.807292 L 1472.385417 638.354167 L 1522.192708 650.598958 L 1572 656.0625 " transform="matrix(0.75,0,0,0.75,0,0)"/>
</g>
<path style=" stroke:none;fill-rule:nonzero;fill:rgb(58.431375%,34.509805%,69.803923%);fill-opacity:0.12;" d="M 21 14.8125 L 58.355469 18.476562 L 95.710938 102.160156 L 133.066406 104.667969 L 170.417969 158.910156 L 207.773438 169.433594 L 245.128906 202.777344 L 282.484375 219.75 L 319.839844 240.984375 L 357.195312 257.613281 L 394.546875 276.089844 L 431.902344 290.835938 L 469.257812 307.523438 L 506.613281 317.605469 L 543.96875 336.597656 L 581.324219 344.199219 L 618.675781 362.03125 L 656.03125 370.3125 L 693.386719 381.363281 L 730.742188 391.445312 L 768.097656 403.675781 L 805.453125 412.40625 L 842.804688 423.054688 L 880.160156 430.230469 L 917.515625 441.078125 L 954.871094 447.828125 L 992.226562 457.917969 L 1029.582031 464.171875 L 1066.933594 473.105469 L 1104.289062 478.765625 L 1141.644531 487.949219 L 1179 492.046875 L 1179 663 L 21 663 Z M 21 14.8125 "/>
<path style=" stroke:none;fill-rule:nonzero;fill:rgb(79.607844%,23.529412%,20%);fill-opacity:0.35;" d="M 627.273438 322.160156 L 710.125 322.160156 L 717.03125 315.5625 L 723.933594 249.410156 L 730.839844 227.222656 L 737.746094 214.453125 L 744.648438 178.28125 L 751.554688 148.253906 L 758.457031 152.5 L 765.363281 191.773438 L 772.265625 318.421875 L 779.171875 322.160156 L 813.695312 322.160156 Z M 627.273438 322.160156 "/>
<g clip-path="url(#clip2)" clip-rule="nonzero">
<path style="fill:none;stroke-width:14;stroke-linecap:butt;stroke-linejoin:miter;stroke:rgb(79.607844%,23.529412%,20%);stroke-opacity:1;stroke-miterlimit:10;" d="M 836.364583 429.546875 L 946.833333 429.546875 L 956.041667 420.75 L 965.244792 332.546875 L 974.453125 302.963542 L 983.661458 285.9375 L 992.864583 237.708333 L 1002.072917 197.671875 L 1011.276042 203.333333 L 1020.484375 255.697917 L 1029.6875 424.5625 L 1038.895833 429.546875 L 1084.927083 429.546875 " transform="matrix(0.75,0,0,0.75,0,0)"/>
</g>
<path style=" stroke:none;fill-rule:nonzero;fill:rgb(21.960784%,59.607846%,14.901961%);fill-opacity:0.35;" d="M 813.695312 322.160156 L 937.976562 322.160156 L 944.878906 274.082031 L 951.785156 222.523438 L 958.6875 175.058594 L 965.59375 132.617188 L 972.496094 95.972656 L 979.402344 65.730469 L 986.304688 42.328125 L 993.210938 26.054688 L 1000.113281 17.054688 L 1007.019531 15.339844 L 1013.925781 20.808594 L 1020.828125 33.257812 L 1027.734375 52.398438 L 1034.636719 77.871094 L 1041.542969 109.265625 L 1048.445312 146.125 L 1055.351562 187.96875 L 1062.253906 234.300781 L 1069.160156 284.609375 L 1076.066406 322.160156 L 1172.726562 322.160156 Z M 813.695312 322.160156 "/>
<g clip-path="url(#clip3)" clip-rule="nonzero">
<path style="fill:none;stroke-width:14;stroke-linecap:butt;stroke-linejoin:miter;stroke:rgb(21.960784%,59.607846%,14.901961%);stroke-opacity:1;stroke-miterlimit:10;" d="M 1084.927083 429.546875 L 1250.635417 429.546875 L 1259.838542 365.442708 L 1269.046875 296.697917 L 1278.25 233.411458 L 1287.458333 176.822917 L 1296.661458 127.963542 L 1305.869792 87.640625 L 1315.072917 56.4375 L 1324.28125 34.739583 L 1333.484375 22.739583 L 1342.692708 20.453125 L 1351.901042 27.744792 L 1361.104167 44.34375 L 1370.3125 69.864583 L 1379.515625 103.828125 L 1388.723958 145.6875 L 1397.927083 194.833333 L 1407.135417 250.625 L 1416.338542 312.401042 L 1425.546875 379.479167 L 1434.755208 429.546875 L 1563.635417 429.546875 " transform="matrix(0.75,0,0,0.75,0,0)"/>
</g>
</g>
</svg>
